<svg xmlns="http://www.w3.org/2000/svg" fill-rule="evenodd" stroke-linejoin="round" stroke-miterlimit="2" clip-rule="evenodd" viewBox="0 0 1080 1080">
<style>
    .background {
        fill: #eee;
    }
    .marko {
        fill: #2d3142;
    }
    .idzan {
        fill: #982C03;
    }
    @media (prefers-color-scheme: dark) {
        .background {
        fill: #2d3142;
        }
        .marko {
            fill: #eee;
        }
        .idzan {
            fill: #ef8354;
        }
    }
</style>
    <path class="background" d="M0 0h1080v1080H0z"/>
    <path class="marko" fill-rule="nonzero" d="M293.908 780.008v77.06h-7.818v-61.536l-27.474 61.537h-5.695l-27.474-61.314v61.314h-7.818v-77.061h8.264l29.82 66.786 29.819-66.786h8.376zM308.092 826.468c0-6.255 1.228-11.727 3.797-16.53 2.457-4.69 5.92-8.376 10.275-10.944 4.467-2.569 9.493-3.797 15.077-3.797 5.808 0 10.833 1.34 15.077 4.02 4.132 2.68 7.148 6.143 9.046 10.275V796.09h7.818v60.979h-7.818v-13.514c-1.898 4.132-5.025 7.594-9.158 10.275-4.243 2.792-9.27 4.132-15.077 4.132-5.472 0-10.498-1.34-14.965-3.909-4.356-2.569-7.818-6.254-10.275-11.056-2.569-4.803-3.797-10.275-3.797-16.53zm53.272.111c0-4.914-1.005-9.27-3.015-12.955-2.01-3.685-4.69-6.59-8.153-8.6-3.462-2.01-7.37-3.015-11.503-3.015-4.356 0-8.153 1.005-11.615 2.904-3.462 1.899-6.143 4.69-8.041 8.376-2.01 3.686-3.016 8.153-3.016 13.179 0 5.025 1.006 9.38 3.016 13.066 1.898 3.798 4.579 6.701 8.04 8.6 3.463 2.01 7.26 3.015 11.616 3.015 4.132 0 8.041-1.005 11.503-3.015 3.462-2.01 6.143-4.914 8.153-8.6 2.01-3.685 3.015-8.04 3.015-12.955zM394.869 806.923c1.675-3.797 4.355-6.7 7.93-8.823 3.461-2.122 7.817-3.127 12.954-3.127v8.153h-2.122c-5.695 0-10.163 1.564-13.625 4.579-3.462 3.015-5.137 8.153-5.137 15.3v34.064h-7.818V796.09h7.818v10.833zM460.426 857.069l-25.128-27.363v27.363h-7.818v-82.645h7.818v48.916l24.57-27.25h10.945l-28.926 30.378 29.15 30.6h-10.61zM507.78 857.962c-5.696 0-10.833-1.34-15.412-3.909-4.58-2.569-8.265-6.142-10.833-10.945-2.68-4.69-4.021-10.163-4.021-16.529s1.34-11.838 4.02-16.64c2.68-4.691 6.366-8.377 10.945-10.945 4.58-2.569 9.828-3.797 15.524-3.797s10.945 1.228 15.636 3.797c4.579 2.568 8.264 6.254 10.945 10.945 2.568 4.802 3.909 10.274 3.909 16.64 0 6.254-1.34 11.727-4.021 16.53-2.68 4.802-6.366 8.375-11.057 10.944-4.69 2.569-9.94 3.909-15.635 3.909zm0-6.813c4.02 0 7.706-.893 11.168-2.792 3.462-1.787 6.143-4.467 8.376-8.264 2.122-3.686 3.127-8.153 3.127-13.514 0-5.36-1.005-9.94-3.127-13.625-2.122-3.685-4.802-6.366-8.264-8.264-3.462-1.787-7.148-2.68-11.168-2.68-4.021 0-7.707.893-11.169 2.68-3.462 1.898-6.142 4.579-8.152 8.264-2.122 3.686-3.128 8.265-3.128 13.625 0 5.361 1.006 9.828 3.128 13.514 2.01 3.797 4.69 6.477 8.152 8.264 3.35 1.899 7.036 2.792 11.057 2.792z"/>
    <path class="idzan" fill-rule="nonzero" d="M583.389 779.003h7.818v78.066h-7.818zM605.39 826.468c0-6.255 1.229-11.727 3.798-16.53 2.568-4.69 6.03-8.376 10.386-10.944 4.467-2.569 9.493-3.797 15.077-3.797 5.36 0 10.163 1.34 14.519 3.908 4.355 2.57 7.483 6.031 9.493 10.164v-34.845h7.818v82.645h-7.818v-13.626c-1.899 4.244-4.914 7.706-9.158 10.387-4.244 2.792-9.27 4.132-14.966 4.132-5.584 0-10.61-1.34-15.077-3.909-4.355-2.569-7.817-6.254-10.274-11.056-2.57-4.803-3.798-10.275-3.798-16.53zm53.273.111c0-4.914-1.005-9.27-3.016-12.955-2.01-3.685-4.69-6.59-8.152-8.6-3.463-2.01-7.371-3.015-11.504-3.015-4.355 0-8.152 1.005-11.615 2.904-3.462 1.899-6.142 4.69-8.04 8.376-2.011 3.686-3.016 8.153-3.016 13.179 0 5.025 1.005 9.38 3.015 13.066 1.899 3.798 4.58 6.701 8.041 8.6 3.463 2.01 7.26 3.015 11.615 3.015 4.133 0 8.041-1.005 11.504-3.015 3.462-2.01 6.142-4.914 8.152-8.6 2.01-3.685 3.016-8.04 3.016-12.955zM688.482 850.591h31.94v6.478h-40.875v-6.478l31.383-48.023h-30.825v-6.478h39.76v6.478l-31.383 48.023zM730.028 826.468c0-6.255 1.229-11.727 3.797-16.53 2.457-4.69 5.92-8.376 10.275-10.944 4.467-2.569 9.493-3.797 15.077-3.797 5.808 0 10.833 1.34 15.077 4.02 4.132 2.68 7.148 6.143 9.046 10.275V796.09h7.818v60.979H783.3v-13.514c-1.898 4.132-5.025 7.594-9.157 10.275-4.244 2.792-9.27 4.132-15.078 4.132-5.472 0-10.498-1.34-14.965-3.909-4.356-2.569-7.818-6.254-10.275-11.056-2.568-4.803-3.797-10.275-3.797-16.53zm53.272.111c0-4.914-1.005-9.27-3.015-12.955-2.01-3.685-4.69-6.59-8.153-8.6-3.462-2.01-7.37-3.015-11.503-3.015-4.356 0-8.153 1.005-11.615 2.904-3.462 1.899-6.143 4.69-8.041 8.376-2.01 3.686-3.016 8.153-3.016 13.179 0 5.025 1.006 9.38 3.016 13.066 1.898 3.798 4.579 6.701 8.041 8.6 3.462 2.01 7.26 3.015 11.615 3.015 4.132 0 8.041-1.005 11.503-3.015 3.462-2.01 6.143-4.914 8.153-8.6 2.01-3.685 3.015-8.04 3.015-12.955zM837.578 794.973c7.26 0 13.29 2.234 17.869 6.701 4.579 4.58 6.924 11.057 6.924 19.656v35.739h-7.706v-34.845c0-6.59-1.675-11.727-4.914-15.19-3.35-3.461-7.93-5.248-13.625-5.248-5.92 0-10.61 1.898-14.072 5.584-3.462 3.685-5.25 9.158-5.25 16.417v33.282h-7.817V796.09h7.818v10.386c1.898-3.685 4.69-6.589 8.376-8.6 3.685-1.898 7.818-2.903 12.397-2.903z"/><g>
    <path class="marko" fill-rule="nonzero" d="M381.37 646.537c-2.737 0-3.91 0-4.692-.39-.39-.783-.781-2.346-.781-5.083V418.615l.39-1.955c.782 0 1.173.782 1.564 1.955l32.449 99.692c.782 3.91 1.564 7.428 1.564 10.946v111.811c0 2.737-.391 4.3-.782 4.691-.782.391-2.346.782-4.692.782h-25.02zm89.918.391c-1.955 0-3.519 0-4.3-.39-.783-.392-1.565-1.955-2.737-4.692l-82.1-258.025c-.781-2.346-.781-3.91-.39-4.692.39-.39 1.954-.781 4.3-.781h21.111c2.346 0 3.91 0 4.692.39.782.391 1.563 1.955 2.345 4.692l81.708 258.416c.782 2.346.782 3.518.391 4.3-.39.391-1.564.391-4.3.391l-20.72.391zm16.028-85.226c-1.563-3.91-1.563-7.428-.39-10.165l53.56-168.107c.781-2.346 1.172-3.91 1.954-4.3.39-.391 2.346-.782 5.082-.782h26.976c2.345 0 3.91.39 4.3.781.782.782 1.173 2.346 1.173 4.692v258.025c0 2.346-.391 3.91-.782 4.691-.39.391-1.955.391-4.691.391h-24.63c-2.346 0-3.91 0-4.691-.39-.391-.783-.782-2.346-.782-5.083V466.702l-41.832 129.794c-.782 1.564-1.563 2.346-1.954 2.346 0 0-.782-.782-1.564-2.346l-11.729-34.794z"/>
    <path class="idzan" fill-rule="nonzero" d="M624.755 646.928c-2.737 0-3.91-.39-4.692-.782-.39-.39-.781-1.954-.781-4.691v-19.156c0-2.346.39-3.91 1.172-4.3.391-.783 1.955-1.174 4.3-1.174h21.112V408.45h-21.111c-2.346 0-3.91-.39-4.3-.781-.783-.782-.783-2.346-.783-4.692v-19.156c0-2.346.391-3.91.782-4.692.782-.39 2.346-.781 4.692-.781h77.407c2.737 0 4.3.39 4.692.781.39.391.782 1.955.782 4.692v19.156c0 2.346-.391 3.91-.782 4.3-.391.392-1.955.783-4.692.783h-20.72v208.765h20.72c2.737 0 4.3 0 4.692.782.39.391.782 1.955.782 4.692v18.765c0 2.737-.391 4.3-.782 4.691s-1.955.782-4.692.782h-77.407l-.391.391z"/></g>
</svg>